<svg width="12" height="14" viewBox="0 0 12 14" fill="none" xmlns="http://www.w3.org/2000/svg">
<path fill-rule="evenodd" clip-rule="evenodd" d="M2.40007 0.303525C2.58839 0.109497 2.84726 0 3.11765 0H7C7.55228 0 8 0.447715 8 1L8 9C8 9.26522 7.89464 9.51957 7.70711 9.70711C7.51957 9.89464 7.26522 10 7 10H1C0.447715 10 0 9.55229 0 9V3.18182C0 2.92177 0.101302 2.67195 0.282419 2.48534L2.40007 0.303525ZM3.54063 2L2 3.58732V8H6L6 2H3.54063Z" fill=""/>
<path fill-rule="evenodd" clip-rule="evenodd" d="M11 4C11.5523 4 12 4.44772 12 5V13C12 13.2652 11.8946 13.5196 11.7071 13.7071C11.5196 13.8946 11.2652 14 11 14H6C5.44772 14 5 13.5523 5 13C5 12.4477 5.44772 12 6 12H10V5C10 4.44772 10.4477 4 11 4Z" fill=""/>
</svg>
