<svg width="137" height="20" viewBox="0 0 137 20" fill="none" xmlns="http://www.w3.org/2000/svg">
<path d="M7.02 10.92C7.02 10.2533 6.79333 9.73333 6.34 9.36C5.88666 8.98667 5.25333 8.8 4.44 8.8H2.78V13.1H4.62C5.39333 13.1 5.98666 12.9067 6.4 12.52C6.81333 12.1333 7.02 11.6 7.02 10.92ZM0.419998 1.36H8.22V3.44H2.78V6.9H4.74C6.16667 6.9 7.3 7.25333 8.14 7.96C8.99333 8.66667 9.42 9.65334 9.42 10.92C9.42 12.1867 8.98 13.1867 8.1 13.92C7.23333 14.64 6.10667 15 4.72 15H0.419998V1.36Z" fill="white"/>
<path d="M11.3533 15V5.42H13.5733V9C13.5733 10.1867 13.5533 11.1667 13.5133 11.94H13.5533C13.7533 11.5667 14.1933 10.9133 14.8733 9.98L18.3333 5.42H20.3733V15H18.1533V11.44C18.1533 10.24 18.1733 9.25333 18.2133 8.48H18.1733C17.9599 8.86667 17.5199 9.52 16.8533 10.44L13.3933 15H11.3533Z" fill="white"/>
<path d="M25.5572 7.96C25.0372 8.54667 24.7772 9.29333 24.7772 10.2C24.7772 11.1067 25.0505 11.86 25.5972 12.46C26.1572 13.0467 26.8305 13.34 27.6172 13.34C28.4572 13.34 29.1439 13.0467 29.6772 12.46C30.2105 11.86 30.4772 11.1067 30.4772 10.2C30.4772 9.32 30.2172 8.58 29.6972 7.98C29.1772 7.38 28.4839 7.08 27.6172 7.08C26.7639 7.08 26.0772 7.37333 25.5572 7.96ZM23.8772 6.68C23.2772 6.49334 22.7572 6.12 22.3172 5.56C21.8772 4.98667 21.6572 4.36 21.6572 3.68C21.6572 2.74667 22.0105 1.96667 22.7172 1.34C23.4239 0.713335 24.2772 0.400002 25.2772 0.400002C25.9172 0.400002 26.7105 0.626668 27.6572 1.08C28.6172 1.52 29.2772 1.74 29.6372 1.74C30.0105 1.74 30.3239 1.62 30.5772 1.38C30.8439 1.12667 30.9772 0.800001 30.9772 0.400002H33.2572C33.2572 1.37334 32.9305 2.17334 32.2772 2.8C31.6372 3.42667 30.7572 3.74 29.6372 3.74C28.9972 3.74 28.2105 3.52 27.2772 3.08C26.3572 2.62667 25.6905 2.4 25.2772 2.4C24.8905 2.4 24.5705 2.51333 24.3172 2.74C24.0639 2.96667 23.9372 3.28 23.9372 3.68C23.9372 4.62667 24.6172 5.1 25.9772 5.1H27.6172C29.1105 5.1 30.3372 5.58667 31.2972 6.56C32.2572 7.52 32.7372 8.73333 32.7372 10.2C32.7372 11.6267 32.2505 12.84 31.2772 13.84C30.3039 14.84 29.0839 15.34 27.6172 15.34C26.1639 15.34 24.9439 14.8467 23.9572 13.86C22.9839 12.8733 22.4972 11.6533 22.4972 10.2C22.4972 8.65334 22.9572 7.48 23.8772 6.68Z" fill="white"/>
<path d="M35.2569 11.86L35.8369 5.42H43.4569V15H41.2369V7.36H37.7569L37.3169 12.12C37.2102 13.2133 36.9435 13.9933 36.5169 14.46C36.0902 14.9133 35.4169 15.14 34.4969 15.14C34.2302 15.14 33.9102 15.1 33.5369 15.02V13.18C33.7502 13.2333 33.9702 13.26 34.1969 13.26C34.5435 13.26 34.7969 13.1467 34.9569 12.92C35.1169 12.6933 35.2169 12.34 35.2569 11.86Z" fill="white"/>
<path d="M46.0017 15V5.42H48.2217V9C48.2217 10.1867 48.2017 11.1667 48.1617 11.94H48.2017C48.4017 11.5667 48.8417 10.9133 49.5217 9.98L52.9817 5.42H55.0217V15H52.8017V11.44C52.8017 10.24 52.8217 9.25333 52.8617 8.48H52.8217C52.6084 8.86667 52.1684 9.52 51.5017 10.44L48.0417 15H46.0017Z" fill="white"/>
<path d="M56.9056 10.2C56.9056 8.73333 57.3923 7.52 58.3656 6.56C59.3523 5.58667 60.5723 5.1 62.0256 5.1C63.519 5.1 64.7456 5.58667 65.7056 6.56C66.6656 7.52 67.1456 8.73333 67.1456 10.2C67.1456 11.6267 66.659 12.84 65.6856 13.84C64.7123 14.84 63.4923 15.34 62.0256 15.34C60.5723 15.34 59.3523 14.8467 58.3656 13.86C57.3923 12.8733 56.9056 11.6533 56.9056 10.2ZM59.9656 7.96C59.4456 8.54667 59.1856 9.29333 59.1856 10.2C59.1856 11.1067 59.459 11.86 60.0056 12.46C60.5656 13.0467 61.239 13.34 62.0256 13.34C62.8656 13.34 63.5523 13.0467 64.0856 12.46C64.619 11.86 64.8856 11.1067 64.8856 10.2C64.8856 9.32 64.6256 8.58 64.1056 7.98C63.5856 7.38 62.8923 7.08 62.0256 7.08C61.1723 7.08 60.4856 7.37333 59.9656 7.96Z" fill="white"/>
<path d="M75.6286 5.42V7.36H71.3486V15H69.1086V5.42H75.6286Z" fill="white"/>
<path d="M77.1359 19.7V5.42H79.3159V6.64H79.3759C80.2426 5.62667 81.3426 5.12 82.6759 5.12C83.9426 5.12 85.0226 5.6 85.9159 6.56C86.8093 7.50667 87.2559 8.73333 87.2559 10.24C87.2559 11.72 86.7959 12.94 85.8759 13.9C84.9693 14.86 83.8626 15.34 82.5559 15.34C81.2493 15.34 80.1959 14.84 79.3959 13.84H79.3359V19.7H77.1359ZM84.9559 10.22C84.9559 9.35334 84.7026 8.61333 84.1959 8C83.6893 7.38667 82.9759 7.08 82.0559 7.08C81.2559 7.08 80.5826 7.37333 80.0359 7.96C79.5026 8.54667 79.2359 9.31333 79.2359 10.26C79.2359 11.1667 79.5093 11.92 80.0559 12.52C80.6159 13.1067 81.2893 13.4 82.0759 13.4C82.9826 13.4 83.6893 13.0867 84.1959 12.46C84.7026 11.82 84.9559 11.0733 84.9559 10.22Z" fill="white"/>
<path d="M98.6663 5.42V15H96.4863V13.78H96.4262C95.5862 14.82 94.4929 15.34 93.1462 15.34C91.9596 15.34 90.8929 14.8867 89.9463 13.98C89.0129 13.06 88.5462 11.8 88.5462 10.2C88.5462 8.70667 89.0062 7.48667 89.9262 6.54C90.8462 5.59334 91.9729 5.12 93.3063 5.12C94.5863 5.12 95.6329 5.65333 96.4463 6.72H96.4863V5.42H98.6663ZM90.8462 10.2C90.8462 11.0667 91.0929 11.8133 91.5863 12.44C92.0929 13.0667 92.8129 13.38 93.7462 13.38C94.5062 13.38 95.1663 13.0867 95.7262 12.5C96.2996 11.9 96.5863 11.1533 96.5863 10.26C96.5863 9.31333 96.3129 8.54 95.7663 7.94C95.2329 7.34 94.5663 7.04 93.7663 7.04C92.8329 7.04 92.1129 7.35333 91.6062 7.98C91.0996 8.60667 90.8462 9.34667 90.8462 10.2Z" fill="white"/>
<path d="M107.077 6.38H107.117V0.600001H109.317V6.38H109.377C109.963 5.54 110.81 5.12 111.917 5.12C112.997 5.12 113.91 5.57333 114.657 6.48C115.403 7.37333 115.777 8.62667 115.777 10.24C115.777 11.7467 115.41 12.9733 114.677 13.92C113.957 14.8667 113.01 15.34 111.837 15.34C111.303 15.34 110.817 15.2267 110.377 15C109.95 14.76 109.617 14.4533 109.377 14.08H109.317V19.7H107.117V14.06H107.077C106.383 14.9133 105.55 15.34 104.577 15.34C103.39 15.34 102.437 14.8667 101.717 13.92C101.01 12.9733 100.657 11.7333 100.657 10.2C100.657 8.70667 101.03 7.48667 101.777 6.54C102.523 5.59334 103.497 5.12 104.697 5.12C105.19 5.12 105.65 5.24667 106.077 5.5C106.503 5.74 106.837 6.03333 107.077 6.38ZM102.897 10.2C102.897 11.1733 103.09 11.96 103.477 12.56C103.877 13.1467 104.417 13.44 105.097 13.44C105.683 13.44 106.183 13.16 106.597 12.6C107.01 12.0267 107.217 11.2467 107.217 10.26C107.217 9.23333 107.017 8.44 106.617 7.88C106.23 7.30667 105.717 7.02 105.077 7.02C104.41 7.02 103.877 7.32 103.477 7.92C103.09 8.52 102.897 9.28 102.897 10.2ZM113.537 10.22C113.537 9.32667 113.357 8.57333 112.997 7.96C112.637 7.33333 112.097 7.02 111.377 7.02C110.75 7.02 110.237 7.3 109.837 7.86C109.437 8.40667 109.237 9.20667 109.237 10.26C109.237 11.2067 109.43 11.9733 109.817 12.56C110.217 13.1467 110.743 13.44 111.397 13.44C112.063 13.44 112.583 13.14 112.957 12.54C113.343 11.94 113.537 11.1667 113.537 10.22Z" fill="white"/>
<path d="M117.701 15V5.42H119.921V9C119.921 10.1867 119.901 11.1667 119.861 11.94H119.901C120.101 11.5667 120.541 10.9133 121.221 9.98L124.681 5.42H126.721V15H124.501V11.44C124.501 10.24 124.521 9.25333 124.561 8.48H124.521C124.308 8.86667 123.868 9.52 123.201 10.44L119.741 15H117.701Z" fill="white"/>
<path d="M133.865 11.3H133.085L130.705 15H128.245L130.965 11.08C130.338 10.9067 129.838 10.5867 129.465 10.12C129.105 9.65334 128.925 9.08 128.925 8.4C128.925 7.49333 129.225 6.77333 129.825 6.24C130.438 5.69334 131.292 5.42 132.385 5.42H136.105V15H133.865V11.3ZM132.605 9.72H133.865V7.1H132.605C132.125 7.1 131.765 7.22667 131.525 7.48C131.285 7.72 131.165 8.02667 131.165 8.4C131.165 9.28 131.645 9.72 132.605 9.72Z" fill="white"/>
</svg>
