<svg width="11" height="18" viewBox="0 0 11 18" fill="none" xmlns="http://www.w3.org/2000/svg">
<path d="M6.2201 0.860994V5.81194C6.2201 6.17353 5.94548 6.4934 5.56969 6.53512C5.13608 6.57684 4.77474 6.25697 4.77474 5.83976L4.80364 4.32388C4.77474 3.69806 4.71692 1.95966 4.77474 1.08351V0.902716C4.77474 0.499408 5.13608 0.346429 5.55523 0.388151C5.94548 0.429872 6.2201 0.499408 6.2201 0.860994Z" fill="white" fill-opacity="0.33"/>
<path d="M10.9898 17.3132C10.9898 17.4801 9.94916 17.5774 8.5327 17.6608C7.65103 17.7165 6.66819 17.8138 5.5119 17.8138C4.45679 17.8138 3.44504 17.7165 2.60673 17.6748C1.04574 17.5913 0.0195312 17.494 0.0195312 17.3132C0.0195312 17.1324 0.771118 17.0489 2.21648 16.9655C2.25984 16.9655 2.3032 16.9655 2.34656 16.9516C2.47664 16.9377 2.57782 16.8264 2.54891 16.7013C2.4911 16.437 2.43328 16.1728 2.38992 15.9085C2.31765 15.4635 2.28875 15.0185 2.24539 14.5456C2.20203 14.1284 2.14421 13.6834 2.17312 13.2801C2.17312 13.2384 2.17312 13.1966 2.17312 13.1549L2.15866 12.9463C2.15866 11.6112 2.43328 10.8046 2.85244 10.0258C3.41613 9.01059 4.31225 8.42649 5.49745 8.42649C6.68264 8.42649 7.54986 8.8298 8.11355 9.84502C8.21472 10.0397 8.54716 10.6655 8.57606 11.1384C8.59052 11.3887 8.47489 11.639 8.0991 11.7503C7.5065 11.9172 7.28969 11.653 7.20297 11.4026C7.11625 11.0967 6.98617 10.6794 6.87054 10.4847C6.53811 9.95628 6.04668 9.81721 5.5119 9.81721C5.17947 9.81721 4.94821 9.98409 4.7025 10.1093C4.39897 10.2622 4.18217 10.4569 4.00873 10.8602C3.76301 11.4304 3.69075 12.1536 3.67629 13.0854C3.67629 13.5165 3.64739 14.045 3.69075 14.5456C3.73411 14.9907 3.76301 15.4079 3.84974 15.8807C3.8931 16.1171 3.95091 16.3814 4.00873 16.6456C4.03763 16.7569 4.13881 16.8403 4.26889 16.8403C4.68805 16.8264 5.1072 16.8125 5.5119 16.8125C5.94551 16.8125 6.36466 16.8125 6.76936 16.8264C6.88499 16.8264 6.98617 16.7569 7.00062 16.6456C7.04398 16.4092 7.08734 16.1589 7.1307 15.9364C7.14516 15.7834 7.15961 15.686 7.18852 15.547C7.27524 15.088 7.3186 15.0046 7.3186 14.6013C7.3186 14.5735 7.30415 14.5456 7.27524 14.5456C6.87054 14.5317 6.5092 14.49 6.1045 14.5317C5.7287 14.5317 5.55526 14.2814 5.52635 13.9198C5.48299 13.5026 5.68534 13.0993 6.1045 13.0993C6.59592 13.141 7.20297 13.141 7.78112 13.1132C8.47489 13.0715 8.87959 13.3913 8.83623 13.9615L8.80732 14.2258C8.80732 14.3092 8.79287 14.3788 8.79287 14.4622C8.77841 14.6291 8.79287 14.6847 8.77841 14.7821C8.7206 15.2549 8.67724 15.4218 8.60497 15.8668C8.59052 16.0059 8.59052 16.1032 8.56161 16.2145C8.5327 16.4092 8.5038 16.5622 8.47489 16.7013C8.44598 16.8125 8.5327 16.9238 8.66279 16.9238C10.0648 16.9933 10.9898 17.1463 10.9898 17.3132Z" fill="white" fill-opacity="0.33"/>
<path d="M8.09913 6.99404C7.99796 6.99404 7.79561 6.96623 7.69443 6.92451C7.33309 6.75762 7.24637 6.42385 7.41981 6.07617C7.75224 5.5477 7.99796 4.75499 8.24367 4.32387C8.60501 3.64242 8.764 3.46162 8.95189 2.96097C9.12534 2.61329 9.48668 2.58547 9.86247 2.71064C10.2527 2.8358 10.4117 3.18348 10.2527 3.53116C10.0359 4.10135 9.74684 4.51857 9.53004 4.97751C9.24097 5.60333 9.02416 6.21524 8.764 6.60464C8.63391 6.85497 8.37375 6.99404 8.09913 6.99404Z" fill="white" fill-opacity="0.33"/>
<path d="M2.91021 7.04967C2.63559 7.04967 2.46214 6.98013 2.33206 6.7298C2.15862 6.25696 1.81173 5.7563 1.52266 5.1722C1.26249 4.65764 1.08905 4.07353 0.727711 3.44771C0.554268 3.10003 0.771072 2.86361 1.13241 2.69673C1.49375 2.52984 1.884 2.61328 2.05744 2.96096C2.24534 3.46162 2.5055 3.93446 2.75122 4.43512C3.02583 4.99141 3.27155 5.5616 3.60398 6.10398C3.77742 6.45166 3.67625 6.66027 3.35827 6.9106C3.25709 6.99404 3.01138 7.04967 2.91021 7.04967Z" fill="white" fill-opacity="0.33"/>
</svg>
